<svg width="25" height="24" viewBox="0 0 25 24" fill="none" xmlns="http://www.w3.org/2000/svg">
    <path
        d="M3.33341 21.3333H5.23342L18.2667 8.3L16.3667 6.4L3.33341 19.4333V21.3333ZM0.666748 24V18.3333L18.2667 0.766667C18.5334 0.522222 18.8279 0.333333 19.1501 0.2C19.4723 0.0666667 19.8112 0 20.1667 0C20.5223 0 20.8667 0.0666667 21.2001 0.2C21.5334 0.333333 21.8223 0.533333 22.0667 0.8L23.9001 2.66667C24.1667 2.91111 24.3612 3.2 24.4834 3.53333C24.6056 3.86667 24.6667 4.2 24.6667 4.53333C24.6667 4.88889 24.6056 5.22778 24.4834 5.55C24.3612 5.87222 24.1667 6.16667 23.9001 6.43333L6.33342 24H0.666748ZM17.3001 7.36667L16.3667 6.4L18.2667 8.3L17.3001 7.36667Z"
        fill="black" />
</svg>